{"title":"Kung Fu Panda - Secrets of the Masters - 2011 - XViD AC3 - GCJM","uid":6940847,"size":500447232,"categoryP":"video","categoryS":"movies","magnet":"?xt=urn:btih:550f3a8fd9894300ffdb571bb7d00f3db273d287&amp;dn=Kung+Fu+Panda+-+Secrets+of+the+Masters+-+2011+-+XViD+AC3+-+GCJM&amp;tr=udp%3A%2F%2Ftracker.openbittorrent.com%3A80&amp;tr=udp%3A%2F%2Fopen.demonii.com%3A1337&amp;tr=udp%3A%2F%2Ftracker.coppersurfer.tk%3A6969&amp;tr=udp%3A%2F%2Fexodus.desync.com%3A6969","seeders":0,"leechers":1,"uploader":"godcanjudgeme","files":-1,"time":1325982608,"description":"Kung Fu Panda - Secrets of the Masters - 2011 - XViD AC3 - GCJM\n===============================================================\n &lt;a href=&quot;\nhttp://www.imdb.com/title/tt1980162/&quot; rel=&quot;nofollow&quot; target=&quot;_NEW&quot;&gt;\nhttp://www.imdb.com/title/tt1980162/&lt;/a&gt;\n\n=======\n\nPo and the Furious Five uncover the legend of three of kung fu,s greatest heroes: Master Thundering Rhino, Master Storming Ox, and Master Croc.\n\n=======\n\nDirector:\nAnthony Leondis\nWriters:\nPaul McEvoy , Todd Berger\nStars:\nTodd Berger, Jack Black and David Cowgill\n\n=======\n\nVideo\n\nCodec ID                         : XVID\nDuration                         : 22mn 5s\nBit rate                         : 2 566 Kbps\nWidth                            : 720 pixels\nHeight                           : 400 pixels\nDisplay aspect ratio             : 16:9\nFrame rate                       : 25.000 fps\nBits/(Pixel*Frame)               : 0.356\nStream size                      : 405 MiB (85%)\nWriting library                  : XviD 64\n\nAudio\n\nFormat                           : AC-3\nFormat/Info                      : Audio Coding 3\nBit rate mode                    : Constant\nBit rate                         : 448 Kbps\nChannel(s)                       : 6 channels\nChannel positions                : Front: L C R, Side: L R, LFE\nSampling rate                    : 48.0 KHz\nStream size                      : 70.8 MiB (15%)\nLanguage                         : English\n\n","torrent":{"xt":"urn:btih:550f3a8fd9894300ffdb571bb7d00f3db273d287","amp;dn":"Kung+Fu+Panda+-+Secrets+of+the+Masters+-+2011+-+XViD+AC3+-+GCJM","amp;tr":["udp%3A%2F%2Ftracker.openbittorrent.com%3A80","udp%3A%2F%2Fopen.demonii.com%3A1337","udp%3A%2F%2Ftracker.coppersurfer.tk%3A6969","udp%3A%2F%2Fexodus.desync.com%3A6969"],"infoHash":"550f3a8fd9894300ffdb571bb7d00f3db273d287","infoHashBuffer":{"type":"Buffer","data":[85,15,58,143,217,137,67,0,255,219,87,27,183,208,15,61,178,115,210,135]},"announce":[],"urlList":[]}}